<?xml version="1.0" encoding="UTF-8" standalone="no"?>
<!-- Created with Inkscape (http://www.inkscape.org/) -->

<svg
   xmlns:dc="http://purl.org/dc/elements/1.1/"
   xmlns:cc="http://creativecommons.org/ns#"
   xmlns:rdf="http://www.w3.org/1999/02/22-rdf-syntax-ns#"
   xmlns:svg="http://www.w3.org/2000/svg"
   xmlns="http://www.w3.org/2000/svg"
   xmlns:sodipodi="http://sodipodi.sourceforge.net/DTD/sodipodi-0.dtd"
   xmlns:inkscape="http://www.inkscape.org/namespaces/inkscape"
   width="297mm"
   height="210mm"
   viewBox="0 0 1052.3622 744.09448"
   id="svg2"
   version="1.1"
   inkscape:version="0.91 r13725"
   sodipodi:docname="Bandera inglesa.svg">
  <defs
     id="defs4" />
  <sodipodi:namedview
     id="base"
     pagecolor="#ffffff"
     bordercolor="#666666"
     borderopacity="1.0"
     inkscape:pageopacity="0.0"
     inkscape:pageshadow="2"
     inkscape:zoom="0.32"
     inkscape:cx="305.81527"
     inkscape:cy="294.00918"
     inkscape:document-units="px"
     inkscape:current-layer="layer1"
     showgrid="false"
     inkscape:window-width="1366"
     inkscape:window-height="705"
     inkscape:window-x="-8"
     inkscape:window-y="-8"
     inkscape:window-maximized="1">
    <inkscape:grid
       type="xygrid"
       id="grid4136" />
  </sodipodi:namedview>
  <metadata
     id="metadata7">
    <rdf:RDF>
      <cc:Work
         rdf:about="">
        <dc:format>image/svg+xml</dc:format>
        <dc:type
           rdf:resource="http://purl.org/dc/dcmitype/StillImage" />
        <dc:title></dc:title>
      </cc:Work>
    </rdf:RDF>
  </metadata>
  <g
     inkscape:label="Capa 1"
     inkscape:groupmode="layer"
     id="layer1"
     transform="translate(0,-308.26772)">
    <g
       id="g5560"
       transform="matrix(2.0457371,0,0,2.0457371,-591.20179,-756.75048)">
      <path
         style="fill:#eea3a1"
         d="m 299.8533,827.30162 c -0.36667,-0.36666 -0.66667,-1.04533 -0.66667,-1.50815 0,-0.46282 36.69249,-19.17532 81.53887,-41.58333 l 81.53887,-40.74185 18.63914,-0.31373 c 19.54667,-0.329 23.28312,0.0157 23.28312,2.14811 0,0.71853 -36.34821,19.42948 -81.55291,41.98095 l -81.55292,40.68467 -20.28042,0 c -11.15423,0 -20.58042,-0.3 -20.94708,-0.66667 z m 61.33333,-0.83477 c 0,-1.86758 142.94417,-72.95439 144.19147,-71.70709 0.45881,0.45881 0.71592,17.00592 0.57136,36.77136 l -0.26283,35.93717 -72.25,0.25658 c -63.97777,0.22719 -72.25,0.0832 -72.25,-1.25802 z m 160.14625,0.17766 c -0.79273,-0.95518 -1.20366,-15.55741 -1.38645,-49.26688 l -0.2598,-47.90934 -111.42862,-0.22862 c -61.28575,-0.12575 -111.80629,-0.60629 -112.26787,-1.06787 -0.46158,-0.46158 -0.7187,-12.0587 -0.57138,-25.77138 l 0.26787,-24.93213 112,-0.5 112,-0.5 0.5,-49.5 0.5,-49.5 26,0 26,0 0.5,49.5 0.5,49.5 111.5,0.5 111.5,0.5 0,25.5 0,25.5 -111.5,0.5 -111.5,0.5 -0.5,49 -0.5,49 -25.11354,0.26688 c -20.18035,0.21446 -25.33486,2.2e-4 -26.24021,-1.09066 z m 66.52042,0.65711 c -0.36667,-0.36666 -0.66667,-16.80579 -0.66667,-36.53138 0,-30.22224 0.22559,-35.95129 1.43388,-36.41495 2.17417,-0.83431 144.56612,70.13597 144.56612,72.05392 0,1.39774 -7.48549,1.55908 -72.33333,1.55908 -39.78334,0 -72.63334,-0.3 -73,-0.66667 z m 125.61284,-39.63969 c -44.12126,-22.1065 -80.7925,-40.77488 -81.49164,-41.48528 -2.5057,-2.54608 1.63712,-3.17767 20.94421,-3.19305 l 19.23209,-0.0153 62.26791,31.25 62.26792,31.25 0,10.9863 c 0,9.00679 -0.27027,11.02367 -1.5,11.19365 -0.825,0.11403 -37.59922,-17.87981 -81.72049,-39.98631 z m -417.82825,9.03994 c -0.26728,-0.69653 -0.36566,-12.95903 -0.21862,-27.25 l 0.26736,-25.98358 51.9863,0 c 45.41623,0 52.02247,0.18957 52.27241,1.5 0.20463,1.07283 -14.38703,8.83301 -51.23886,27.25 -28.33873,14.1625 -51.76294,25.75 -52.05379,25.75 -0.29086,0 -0.74752,-0.56989 -1.0148,-1.26642 z m 448.04874,-25.02976 c -32.57608,-16.42083 -50,-25.72654 -50,-26.70382 0,-1.3094 6.28981,-1.53521 49.5,-1.77706 27.225,-0.15239 50.51995,-0.0294 51.76656,0.2732 l 2.26656,0.55028 -0.26656,26.21353 c -0.22779,22.40083 -0.48473,26.24511 -1.76656,26.43061 -0.825,0.1194 -24,-11.12464 -51.5,-24.98674 z M 295.8622,662.31053 c -1.06719,-1.06719 -0.80541,-53.14396 0.2705,-53.80891 0.52033,-0.32158 24.15541,11.01436 52.5224,25.19099 36.88778,18.43495 51.4949,26.20287 51.29037,27.27568 -0.24903,1.30623 -6.94663,1.53345 -51.84683,1.75891 -28.35848,0.1424 -51.86487,-0.0451 -52.23644,-0.41667 z m 62.32443,-30.75945 -62.5,-31.30081 -0.28293,-11.15974 c -0.32947,-12.99569 0.23998,-13.79408 7.02059,-9.84319 2.34429,1.36595 38.99181,19.85149 81.43894,41.07898 42.44714,21.22749 77.49229,39.10622 77.87812,39.73051 1.45081,2.34745 -2.59136,2.87965 -21.55472,2.83795 l -19.5,-0.0429 -62.5,-31.30081 z m 232.34508,29.87408 c -0.32569,-0.84872 -0.42406,-1.70999 -0.21862,-1.91393 0.20545,-0.20394 37.37575,-18.85953 82.60067,-41.45687 l 82.22712,-41.08607 20.52288,0 c 18.96148,0 20.52287,0.13456 20.52287,1.76868 0,1.34482 -19.8304,11.65886 -82.75,43.03931 l -82.75,41.27063 -19.78138,-0.0393 c -16.88246,-0.0335 -19.86817,-0.26545 -20.37354,-1.58244 z m 103.10666,0.46504 c -0.37261,-0.60289 -0.28918,-1.48349 0.18539,-1.95687 2.32422,-2.31838 101.70985,-51.01806 102.50146,-50.22645 0.4959,0.4959 0.77659,12.47464 0.62866,26.82866 l -0.26725,25.93275 -51.18539,0.25905 c -36.29639,0.18369 -51.38246,-0.0598 -51.86287,-0.83714 z M 430.68663,615.98813 c -40.81031,-20.33807 -72,-36.45307 -72,-37.20074 0,-1.07783 13.43325,-1.36602 73.44346,-1.57564 40.3939,-0.1411 73.6939,0.0839 74,0.5 0.3061,0.4161 0.42309,17.29404 0.25998,37.50654 -0.27322,33.85739 -0.43064,36.74612 -2,36.70075 -0.93689,-0.0271 -34.10344,-16.196 -73.70344,-35.93091 z m 157.50539,33.99023 c -0.66703,-1.24636 -0.93827,-14.38685 -0.76823,-37.21832 l 0.26284,-35.29175 73.5,0 c 55.67846,0 73.5,0.28523 73.5,1.17633 0,0.95075 -135.40686,69.39858 -143.23177,72.40332 -1.73209,0.66511 -2.46263,0.42563 -3.26284,-1.06958 z"
         id="path5540"
         inkscape:connector-curvature="0" />
      <path
         style="fill:#aca7c8"
         d="m 361.18663,826.46685 c 0,-1.86758 142.94417,-72.95439 144.19147,-71.70709 0.45881,0.45881 0.71592,17.00592 0.57136,36.77136 l -0.26283,35.93717 -72.25,0.25658 c -63.97777,0.22719 -72.25,0.0832 -72.25,-1.25802 z m 226.66667,0.83477 c -0.36667,-0.36666 -0.66667,-16.80579 -0.66667,-36.53138 0,-30.22224 0.22559,-35.95129 1.43388,-36.41495 2.17417,-0.83431 144.56612,70.13597 144.56612,72.05392 0,1.39774 -7.48549,1.55908 -72.33333,1.55908 -39.78334,0 -72.63334,-0.3 -73,-0.66667 z m -285.66667,-1.33818 c 0,-0.55267 36.00997,-19.00267 80.02215,-41 l 80.02216,-39.99515 19.47784,0 c 10.86256,0 19.47785,0.39772 19.47785,0.89918 0,0.49454 -36.27933,18.94454 -80.62074,41 l -80.62073,40.10082 -18.87927,0 c -11.98025,0 -18.87926,-0.3672 -18.87926,-1.00485 z m 220.66667,0.33818 c -0.36667,-0.36666 -0.66667,-22.10166 -0.66667,-48.3 0,-35.71481 -0.30026,-47.93359 -1.2,-48.83333 -0.91894,-0.91894 -27.24289,-1.2 -112.39301,-1.2 -100.47099,0 -111.25154,-0.15253 -111.8,-1.58179 -1.21264,-3.16008 -0.67524,-45.94996 0.59301,-47.21821 0.91894,-0.91894 27.24289,-1.2 112.39301,-1.2 100.47099,0 111.25154,-0.15253 111.8,-1.58179 0.33385,-0.86998 0.60699,-23.36998 0.60699,-50 l 0,-48.41821 24.5,0 c 13.475,0 24.60188,0.1125 24.7264,0.25 0.12452,0.1375 0.46202,22.525 0.75,49.75 l 0.5236,49.5 111.5,0.5 111.5,0.5 0,24.5 0,24.5 -110.95439,0.25439 c -62.48896,0.14327 -111.34028,0.64028 -111.83783,1.13783 -0.48782,0.48782 -0.8591,21.98359 -0.82909,48.00107 0.0299,25.9147 -0.20373,47.79018 -0.51916,48.61217 -0.48655,1.26794 -4.17081,1.49454 -24.29985,1.49454 -13.04949,0 -24.02635,-0.3 -24.39301,-0.66667 z m 191.16762,-39.84744 c -43.26615,-21.67227 -78.94115,-39.84978 -79.27779,-40.39448 -1.05338,-1.7044 5.64866,-2.28412 22.07947,-1.90985 l 15.86403,0.36135 61.5,30.97854 61.5,30.97855 0.28621,9.75 c 0.25885,8.81792 0.11545,9.74474 -1.5,9.69501 -0.98241,-0.0303 -37.18578,-17.78685 -80.45192,-39.45912 z m -418.38303,10.24769 c -0.26728,-0.69653 -0.36566,-12.95903 -0.21862,-27.25 l 0.26736,-25.98358 51.9863,0 c 45.41623,0 52.02247,0.18957 52.27241,1.5 0.20463,1.07283 -14.38703,8.83301 -51.23886,27.25 -28.33873,14.1625 -51.76294,25.75 -52.05379,25.75 -0.29086,0 -0.74752,-0.56989 -1.0148,-1.26642 z m 448.04874,-25.02976 c -32.57608,-16.42083 -50,-25.72654 -50,-26.70382 0,-1.3094 6.28981,-1.53521 49.5,-1.77706 27.225,-0.15239 50.51995,-0.0294 51.76656,0.2732 l 2.26656,0.55028 -0.26656,26.21353 c -0.22779,22.40083 -0.48473,26.24511 -1.76656,26.43061 -0.825,0.1194 -24,-11.12464 -51.5,-24.98674 z M 295.8622,662.31053 c -1.06719,-1.06719 -0.80541,-53.14396 0.2705,-53.80891 0.52033,-0.32158 24.15541,11.01436 52.5224,25.19099 36.88778,18.43495 51.4949,26.20287 51.29037,27.27568 -0.24903,1.30623 -6.94663,1.53345 -51.84683,1.75891 -28.35848,0.1424 -51.86487,-0.0451 -52.23644,-0.41667 z m 397.77617,-0.42033 c -0.37261,-0.60289 -0.28918,-1.48349 0.18539,-1.95687 2.32422,-2.31838 101.70985,-51.01806 102.50146,-50.22645 0.4959,0.4959 0.77659,12.47464 0.62866,26.82866 l -0.26725,25.93275 -51.18539,0.25905 c -36.29639,0.18369 -51.38246,-0.0598 -51.86287,-0.83714 z M 359.96509,630.85554 c -34.25315,-17.11202 -62.60907,-31.62452 -63.01315,-32.25 -1.09071,-1.68835 -0.92077,-18.42314 0.19408,-19.11215 0.87594,-0.54136 157.77803,77.27215 160.88756,79.79004 2.44158,1.97704 -1.67488,2.54146 -19.06849,2.61457 l -16.72154,0.0703 -62.27846,-31.11275 z m 233.78363,30.26882 c -2.50267,-1.05131 -6.51906,1.0527 86.19239,-45.15257 l 76.25448,-38.0035 18.99552,0 c 11.98155,0 18.99552,0.36879 18.99552,0.99878 0,0.54933 -36.5625,19.31165 -81.25,41.69404 l -81.25,40.69526 -18,0.29103 c -9.9,0.16007 -18.87206,-0.0753 -19.93791,-0.52304 z M 430.68663,615.98813 c -40.81031,-20.33807 -72,-36.45307 -72,-37.20074 0,-1.07783 13.43325,-1.36602 73.44346,-1.57564 40.3939,-0.1411 73.6939,0.0839 74,0.5 0.3061,0.4161 0.42309,17.29404 0.25998,37.50654 -0.27322,33.85739 -0.43064,36.74612 -2,36.70075 -0.93689,-0.0271 -34.10344,-16.196 -73.70344,-35.93091 z m 157.50539,33.99023 c -0.66703,-1.24636 -0.93827,-14.38685 -0.76823,-37.21832 l 0.26284,-35.29175 73.5,0 c 55.67846,0 73.5,0.28523 73.5,1.17633 0,0.95075 -135.40686,69.39858 -143.23177,72.40332 -1.73209,0.66511 -2.46263,0.42563 -3.26284,-1.06958 z"
         id="path5538"
         inkscape:connector-curvature="0" />
      <path
         style="fill:#e86061"
         d="m 302.18663,825.96344 c 0,-0.55267 36.00997,-19.00267 80.02215,-41 l 80.02216,-39.99515 19.47784,0 c 10.86256,0 19.47785,0.39772 19.47785,0.89918 0,0.49454 -36.27933,18.94454 -80.62074,41 l -80.62073,40.10082 -18.87927,0 c -11.98025,0 -18.87926,-0.3672 -18.87926,-1.00485 z m 62,-0.0586 c 0,-1.06203 137.80574,-69.93655 139.93066,-69.93655 0.77749,0 1.01874,10.2194 0.83213,35.25 l -0.26279,35.25 -70.25,0.25675 c -49.67253,0.18155 -70.25,-0.0587 -70.25,-0.82021 z m 158.66667,0.39679 c -0.36667,-0.36667 -0.66667,-22.10167 -0.66667,-48.30001 0,-35.71481 -0.30026,-47.93359 -1.2,-48.83333 -0.91894,-0.91894 -27.24289,-1.2 -112.39301,-1.2 -100.47099,0 -111.25154,-0.15253 -111.8,-1.58179 -1.21264,-3.16008 -0.67524,-45.94996 0.59301,-47.21821 0.91894,-0.91894 27.24289,-1.2 112.39301,-1.2 100.47099,0 111.25154,-0.15253 111.8,-1.58179 0.33385,-0.86998 0.60699,-23.36998 0.60699,-50 l 0,-48.41821 24.5,0 c 13.475,0 24.60188,0.1125 24.7264,0.25 0.12452,0.1375 0.46202,22.525 0.75,49.75 l 0.5236,49.5 111.5,0.5 111.5,0.5 0,24.5 0,24.5 -110.95439,0.25439 c -62.48896,0.14327 -111.34028,0.64028 -111.83783,1.13783 -0.48782,0.48782 -0.8591,21.98359 -0.82909,48.00107 0.0299,25.9147 -0.20373,47.79018 -0.51916,48.61217 -0.48655,1.26794 -4.17081,1.49454 -24.29985,1.49454 -13.04949,0 -24.02635,-0.3 -24.39301,-0.66667 z m 66,0 c -1.06814,-1.06814 -0.79323,-70.13708 0.28181,-70.80149 1.20409,-0.74418 141.05152,69.12382 141.05152,70.46956 0,1.12674 -140.20923,1.45603 -141.33333,0.33192 z m 125.16762,-39.84744 c -43.26615,-21.67227 -78.94115,-39.84978 -79.27779,-40.39448 -1.05338,-1.7044 5.64866,-2.28412 22.07947,-1.90985 l 15.86403,0.36134 61.5,30.97854 61.5,30.97855 0.28621,9.75 c 0.25885,8.81792 0.11545,9.74474 -1.5,9.69501 -0.98241,-0.0303 -37.18578,-17.78685 -80.45192,-39.45912 z M 296.18663,770.57528 c 0,-19.45735 0.29219,-25.47646 1.25,-25.75 0.6875,-0.19635 23.75,-0.13199 51.25,0.14301 l 50,0.5 -7,3.77178 c -11.56872,6.23353 -93.4914,46.72822 -94.5334,46.72822 -0.59675,0 -0.9666,-9.71605 -0.9666,-25.39301 z m 448.25,0.0917 c -26.5375,-13.30399 -48.25,-24.52028 -48.25,-24.92511 0,-0.70351 94.86338,-1.62028 98.32809,-0.95026 1.50918,0.29186 1.67191,2.74944 1.67191,25.25 0,23.09442 -0.12864,24.92255 -1.75,24.87052 -0.9625,-0.0309 -23.4625,-10.94122 -50,-24.24518 z m -447,-109.36094 c -1.54208,-0.62224 -1.83381,-49.85887 -0.30103,-50.80618 0.52194,-0.32258 23.54801,10.71479 51.16906,24.52748 35.93964,17.97264 49.81656,25.36939 48.80102,26.01217 -1.45843,0.92311 -97.406,1.17969 -99.66905,0.26653 z m 62.52846,-30.45047 c -34.25315,-17.11202 -62.60907,-31.62452 -63.01315,-32.25 -1.09071,-1.68835 -0.92077,-18.42314 0.19408,-19.11215 0.87594,-0.54136 157.77803,77.27215 160.88756,79.79004 2.44158,1.97704 -1.67488,2.54146 -19.06849,2.61457 l -16.72154,0.0703 -62.27846,-31.11275 z m 233.78363,30.26882 c -2.50267,-1.05131 -6.51906,1.0527 86.19239,-45.15257 l 76.25448,-38.00353 18.99552,0 c 11.98155,0 18.99552,0.36879 18.99552,0.99878 0,0.54933 -36.5625,19.31165 -81.25,41.69404 l -81.25,40.69526 -18,0.29103 c -9.9,0.16007 -18.87206,-0.0753 -19.93791,-0.52304 z m 103.00794,-0.0428 c -0.30141,-0.48768 0.01,-1.33999 0.69098,-1.89402 2.31374,-1.88111 95.78617,-48.21928 97.26698,-48.21928 1.25659,0 1.47201,3.64297 1.47201,24.89301 0,21.77668 -0.19802,24.969 -1.58179,25.5 -2.53716,0.9736 -97.24091,0.70288 -97.84818,-0.2797 z M 431.93663,615.41034 c -38.9125,-19.4792 -70.75,-35.87242 -70.75,-36.42938 0,-0.67418 24.06632,-1.01267 72,-1.01267 l 72,0 0,36.5 c 0,28.57099 -0.27154,36.48466 -1.25,36.42938 -0.6875,-0.0388 -33.0875,-16.00813 -72,-35.48733 z m 157.25,-1.44205 0,-36 71.5,0 c 44.55297,0 71.5,0.35848 71.5,0.95117 0,0.90203 -140.33876,71.04883 -142.1434,71.04883 -0.47113,0 -0.8566,-16.2 -0.8566,-36 z"
         id="path5536"
         inkscape:connector-curvature="0" />
      <path
         style="fill:#635a9b"
         d="m 364.18663,825.90483 c 0,-1.06202 137.80574,-69.93654 139.93066,-69.93654 0.77749,0 1.01874,10.2194 0.83213,35.25 l -0.26279,35.25 -70.25,0.25675 c -49.67253,0.18155 -70.25,-0.0587 -70.25,-0.82021 z m 224.66667,0.39679 c -1.06814,-1.06814 -0.79323,-70.13708 0.28181,-70.80149 1.20409,-0.74417 141.05152,69.12383 141.05152,70.46957 0,1.12674 -140.20923,1.45603 -141.33333,0.33192 z m -283.66667,-0.83824 c 0,-0.2777 35.56009,-18.2777 79.02243,-40 l 79.02243,-39.49509 16.97757,0 c 9.33766,0 16.97562,0.3375 16.97323,0.75 -0.002,0.4125 -35.62298,18.4125 -79.15688,40 l -79.15254,39.25 -16.84312,0 c -9.26372,0 -16.84312,-0.22721 -16.84312,-0.50491 z m 218.68497,-0.14346 c -0.37673,-0.37673 -0.69186,-22.09746 -0.70028,-48.2683 -0.008,-26.17083 -0.37127,-48.14386 -0.80632,-48.82896 -0.62199,-0.97948 -24.60275,-1.29998 -112.23469,-1.5 l -111.44368,-0.25437 -0.26923,-22.9291 c -0.20762,-17.68129 0.0212,-23.11064 1,-23.72231 0.69808,-0.43627 50.95241,-0.80136 111.67629,-0.8113 60.72388,-0.01 110.67388,-0.28459 111,-0.61032 0.32612,-0.32574 0.81794,-22.71756 1.09294,-49.75961 l 0.5,-49.16736 22.77416,-0.26884 c 17.70783,-0.20903 22.86496,0.0134 23.18233,1 0.22449,0.69786 0.5937,22.77641 0.82045,49.06345 0.24947,28.92058 0.79487,48.1772 1.38111,48.76344 0.61058,0.61058 41.98978,1.0563 111.90539,1.20539 l 110.93656,0.23656 0,23.5 0,23.5 -111.75,0.25433 c -61.4625,0.13988 -111.85178,0.36488 -111.97617,0.5 -0.1244,0.13512 -0.4619,22.29567 -0.75,49.24567 l -0.52383,49 -22.56503,0.2683 c -12.41077,0.14757 -22.87327,-0.0399 -23.25,-0.41667 z m 191.81503,-39.697 -78,-39.15463 17.21684,-0.27347 17.21684,-0.27347 61.28316,30.77347 61.28316,30.77347 0.29486,7.90514 c 0.16217,4.34783 -0.0628,8.24242 -0.5,8.65464 -0.43717,0.41222 -35.89486,-16.8701 -78.79486,-38.40515 z m -419.5,-15.04764 c 0,-19.45735 0.29219,-25.47646 1.25,-25.75 0.6875,-0.19635 23.75,-0.13199 51.25,0.14301 l 50,0.5 -7,3.77178 c -11.56872,6.23353 -93.4914,46.72822 -94.5334,46.72822 -0.59675,0 -0.9666,-9.71605 -0.9666,-25.39301 z m 448.25,0.0917 c -26.5375,-13.30399 -48.25,-24.52028 -48.25,-24.92511 0,-0.70351 94.86338,-1.62028 98.32809,-0.95026 1.50918,0.29186 1.67191,2.74944 1.67191,25.25 0,23.09442 -0.12864,24.92255 -1.75,24.87052 -0.9625,-0.0309 -23.4625,-10.94122 -50,-24.24518 z m -447,-109.36094 c -1.54208,-0.62224 -1.83381,-49.85887 -0.30103,-50.80618 0.52194,-0.32258 23.54801,10.71479 51.16906,24.52748 35.93964,17.97264 49.81656,25.36939 48.80102,26.01217 -1.45843,0.92311 -97.406,1.17969 -99.66905,0.26653 z m 399.32003,-0.22441 c -0.30141,-0.48768 0.01,-1.33999 0.69098,-1.89402 2.31374,-1.88115 95.78617,-48.21932 97.26698,-48.21932 1.25659,0 1.47201,3.64297 1.47201,24.89301 0,21.77668 -0.19802,24.969 -1.58179,25.5 -2.53716,0.9736 -97.24091,0.70288 -97.84818,-0.2797 z M 360.68663,629.84871 c -33,-16.51045 -60.7875,-30.93767 -61.75,-32.06049 -1.29659,-1.51257 -1.75,-3.81112 -1.75,-8.8717 0,-3.75661 0.42676,-7.09395 0.94835,-7.41631 0.91272,-0.56409 157.05165,76.95212 157.05165,77.96935 0,0.2743 -7.7625,0.4761 -17.25,0.44844 l -17.25,-0.0503 -60,-30.019 z m 235.79684,29.48941 c 0.34659,-0.34659 36.69645,-18.57159 80.77747,-40.5 l 80.14731,-39.86983 15.83017,0 c 8.7066,0 16.04953,0.35492 16.31763,0.78871 0.26809,0.43379 -35.2561,18.65879 -78.94265,40.5 l -79.4301,39.71129 -17.665,0 c -9.71575,0 -17.38143,-0.28358 -17.03483,-0.63017 z M 431.93663,615.41034 c -38.9125,-19.4792 -70.75,-35.87242 -70.75,-36.42938 0,-0.67418 24.06632,-1.01267 72,-1.01267 l 72,0 0,36.5 c 0,28.57099 -0.27154,36.48466 -1.25,36.42938 -0.6875,-0.0388 -33.0875,-16.00813 -72,-35.48733 z m 157.25,-1.44205 0,-36 71.5,0 c 44.55297,0 71.5,0.35848 71.5,0.95117 0,0.90203 -140.33876,71.04883 -142.1434,71.04883 -0.47113,0 -0.8566,-16.2 -0.8566,-36 z"
         id="path5534"
         inkscape:connector-curvature="0" />
      <path
         style="fill:#f80404"
         d="m 305.18663,825.46338 c 0,-0.2777 35.56009,-18.2777 79.02243,-40 l 79.02243,-39.49509 16.97757,0 c 9.33766,0 16.97562,0.3375 16.97323,0.75 -0.002,0.4125 -35.62298,18.4125 -79.15688,40 l -79.15254,39.25 -16.84312,0 c -9.26372,0 -16.84312,-0.22721 -16.84312,-0.50491 z m 62.06549,-0.24509 c 0.091,-1.04226 135.25871,-68.10539 136.18451,-67.56762 0.4125,0.23961 0.75,15.7091 0.75,34.37664 l 0,33.94098 -68.5,0 c -37.675,0 -68.47053,-0.3375 -68.43451,-0.75 z m 156.61948,0.10163 c -0.37673,-0.37673 -0.69186,-22.09746 -0.70028,-48.2683 -0.008,-26.17083 -0.37127,-48.14386 -0.80632,-48.82896 -0.62199,-0.97948 -24.60275,-1.29998 -112.23469,-1.5 l -111.44368,-0.25437 -0.26923,-22.9291 c -0.20762,-17.68129 0.0212,-23.11064 1,-23.72231 0.69808,-0.43627 50.95241,-0.80136 111.67629,-0.8113 60.72388,-0.01 110.67388,-0.28459 111,-0.61032 0.32612,-0.32574 0.81794,-22.71756 1.09294,-49.75961 l 0.5,-49.16736 22.77416,-0.26884 c 17.70783,-0.20903 22.86496,0.0134 23.18233,1 0.22449,0.69786 0.5937,22.77641 0.82045,49.06345 0.24947,28.92058 0.79487,48.1772 1.38111,48.76344 0.61058,0.61058 41.98978,1.0563 111.90539,1.20539 l 110.93656,0.23656 0,23.5 0,23.5 -111.75,0.25433 c -61.4625,0.13988 -111.85178,0.36488 -111.97617,0.5 -0.1244,0.13512 -0.4619,22.29567 -0.75,49.24567 l -0.52383,49 -22.56503,0.2683 c -12.41077,0.14757 -22.87327,-0.0399 -23.25,-0.41667 z m 65.9817,-0.0183 c -1.03734,-1.03733 -0.79522,-67.13585 0.24827,-67.78076 1.0241,-0.63293 136.95262,66.51859 137.03356,67.69743 0.0636,0.92639 -136.35597,1.0092 -137.28183,0.0833 z m 125.83333,-39.6787 -78,-39.15463 17.21684,-0.27347 17.21684,-0.27347 61.28316,30.77347 61.28316,30.77347 0.29486,7.90514 c 0.16217,4.34783 -0.0628,8.24242 -0.5,8.65464 -0.43717,0.41222 -35.89486,-16.8701 -78.79486,-38.40515 z m -417.89806,8.61397 c -0.33107,-0.33106 -0.60194,-11.32693 -0.60194,-24.43527 l 0,-23.83333 48.5,0 c 26.675,0 48.5,0.22656 48.5,0.50346 0,0.91775 -95.78439,48.37882 -96.39806,47.76514 z M 746.77279,770.4157 c -25.80261,-12.89297 -47.14011,-23.66803 -47.41667,-23.94458 -0.27655,-0.27656 21.17218,-0.50283 47.66384,-0.50283 l 48.16667,0 0,24 c 0,13.2 -0.3375,23.97506 -0.75,23.94458 -0.4125,-0.0305 -21.86123,-10.60421 -47.66384,-23.49717 z M 297.18663,635.96829 c 0,-16.69077 0.33278,-24 1.09271,-24 1.37551,0 95.90729,46.81765 95.90729,47.49889 0,0.27561 -21.825,0.50111 -48.5,0.50111 l -48.5,0 0,-24 z m 63.5,-6.11958 c -33,-16.51045 -60.7875,-30.93767 -61.75,-32.06049 -1.29659,-1.51257 -1.75,-3.81112 -1.75,-8.8717 0,-3.75661 0.42676,-7.09395 0.94835,-7.41631 0.91272,-0.56409 157.05165,76.95212 157.05165,77.96935 0,0.2743 -7.7625,0.4761 -17.25,0.44844 l -17.25,-0.0503 -60,-30.019 z m 235.79684,29.48941 c 0.34659,-0.34659 36.69645,-18.57159 80.77747,-40.5 l 80.14731,-39.86983 15.83017,0 c 8.7066,0 16.04953,0.35492 16.31763,0.78871 0.26809,0.43379 -35.2561,18.65879 -78.94265,40.5 l -79.4301,39.71129 -17.665,0 c -9.71575,0 -17.38143,-0.28358 -17.03483,-0.63017 z m 149.70316,-23.36983 c 26.125,-13.13992 47.8375,-23.91534 48.25,-23.94538 0.4125,-0.03 0.75,10.74538 0.75,23.94538 l 0,24 -48.25,-0.0546 -48.25,-0.0546 47.5,-23.8908 z m -313.25,-21.55635 c -37.8125,-18.9456 -68.75,-34.67089 -68.75,-34.94509 0,-0.27421 31.5,-0.49856 70,-0.49856 l 70,0 0,35 c 0,27.36262 -0.27276,34.98802 -1.25,34.94509 -0.6875,-0.0302 -32.1875,-15.55585 -70,-34.50144 z m 157.25,-0.45665 0,-34.987 69.5,0 c 38.225,0 69.5,0.24692 69.5,0.5487 0,0.43102 -114.09611,57.49945 -134.32863,67.1883 l -4.67137,2.23701 0,-34.98701 z"
         id="path5532"
         inkscape:connector-curvature="0" />
      <path
         style="fill:#1b0a81"
         d="m 367.25212,825.21829 c 0.091,-1.04226 135.25871,-68.10539 136.18451,-67.56762 0.4125,0.23961 0.75,15.7091 0.75,34.37664 l 0,33.94098 -68.5,0 c -37.675,0 -68.47053,-0.3375 -68.43451,-0.75 z m 222.60118,0.0833 c -1.03734,-1.03733 -0.79522,-67.13585 0.24827,-67.78076 1.0241,-0.63293 136.95262,66.51859 137.03356,67.69743 0.0636,0.92639 -136.35597,1.0092 -137.28183,0.0833 z m -292.06473,-31.0647 c -0.33107,-0.33106 -0.60194,-11.32693 -0.60194,-24.43527 l 0,-23.83333 48.5,0 c 26.675,0 48.5,0.22656 48.5,0.50346 0,0.91775 -95.78439,48.37882 -96.39806,47.76514 z M 746.77279,770.4157 c -25.80261,-12.89297 -47.14011,-23.66803 -47.41667,-23.94458 -0.27655,-0.27656 21.17218,-0.50283 47.66384,-0.50283 l 48.16667,0 0,24 c 0,13.2 -0.3375,23.97506 -0.75,23.94458 -0.4125,-0.0305 -21.86123,-10.60421 -47.66384,-23.49717 z M 297.18663,635.96829 c 0,-16.69077 0.33278,-24 1.09271,-24 1.37551,0 95.90729,46.81765 95.90729,47.49889 0,0.27561 -21.825,0.50111 -48.5,0.50111 l -48.5,0 0,-24 z m 449,0 c 26.125,-13.13992 47.8375,-23.91534 48.25,-23.94538 0.4125,-0.03 0.75,10.74538 0.75,23.94538 l 0,24 -48.25,-0.0546 -48.25,-0.0546 47.5,-23.8908 z m -313.25,-21.55635 c -37.8125,-18.9456 -68.75,-34.67089 -68.75,-34.94509 0,-0.27421 31.5,-0.49856 70,-0.49856 l 70,0 0,35 c 0,27.36262 -0.27276,34.98802 -1.25,34.94509 -0.6875,-0.0302 -32.1875,-15.55585 -70,-34.50144 z m 157.25,-0.45665 0,-34.987 69.5,0 c 38.225,0 69.5,0.24692 69.5,0.5487 0,0.43102 -114.09611,57.49945 -134.32863,67.1883 l -4.67137,2.23701 0,-34.98701 z"
         id="path5530"
         inkscape:connector-curvature="0" />
      <path
         style="fill:#14027a"
         d="m 435.68663,791.96493 c 36.3,-18.08335 66.3375,-32.90532 66.75,-32.93772 0.4125,-0.0324 0.75,14.79108 0.75,32.94108 l 0,33 -66.75,-0.0623 -66.75,-0.0623 66,-32.8788 z m 154.86408,28.36379 c 0.34975,-2.55177 0.63592,-17.57832 0.63592,-33.39236 l 0,-28.75278 47.13513,23.49983 c 34.45611,17.17853 46.76254,23.75752 45.75,24.45786 -1.00875,0.69771 -0.81123,0.79796 0.72693,0.36892 1.46397,-0.40834 7.90779,2.31353 21,8.87043 l 18.88794,9.45954 -67.38592,0.0641 -67.38593,0.0641 0.63593,-4.63957 z m -292.36408,-50.36043 0,-23 46,0 c 25.3,0 46,0.18481 46,0.41069 0,0.22588 -8.8875,4.7908 -19.75,10.14427 -22.43875,11.05869 -63.24816,31.4399 -67.75,33.83598 -1.65,0.87821 -3.3375,1.59951 -3.75,1.6029 -0.4125,0.003 -0.75,-10.34384 -0.75,-22.99384 z m 450,-0.0827 -45.5,-22.88315 45.75,-0.0171 45.75,-0.017 0,23 c 0,12.65 -0.1125,22.9551 -0.25,22.90022 -0.1375,-0.0549 -20.725,-10.3972 -45.75,-22.98294 z m 0.28702,-110.90198 -45.21298,-0.51532 45.46298,-22.59843 45.46298,-22.59843 0,23.34843 c 0,12.84164 -0.1125,23.24282 -0.25,23.11375 -0.1375,-0.12908 -20.59584,-0.46658 -45.46298,-0.75 z M 298.18663,635.96829 c 0,-12.65 0.23801,-23 0.52892,-23 0.72071,0 90.41432,44.79184 91.38775,45.63787 0.22916,0.19917 -20.35834,0.36213 -45.75,0.36213 l -46.16667,0 0,-23 z m 136,-22.05582 -67.5,-33.86572 68.25,-0.0392 68.25,-0.0393 0,34 c 0,18.7 -0.3375,33.95723 -0.75,33.90495 -0.4125,-0.0523 -31.125,-15.33462 -68.25,-33.96077 z m 157,-0.44418 0,-33.5 67.75,0.047 67.75,0.047 -15.55736,7.703 c -8.55655,4.23665 -16.65655,8.20976 -18,8.82914 -1.34345,0.61938 -24.623,12.20688 -51.73233,25.75 -27.10933,13.54312 -49.49683,24.62386 -49.75,24.62386 -0.25317,0 -0.46031,-15.075 -0.46031,-33.5 z"
         id="path5528"
         inkscape:connector-curvature="0" />
    </g>
  </g>
</svg>
